/* XPM */
static char * exit_closed_xpm[] = {
"64 64 8 1",
" 	c #7C868A",
".	c #9BABB2",
"+	c #C7DCD0",
"@	c #5F6669",
"#	c #CBD0D3",
"$	c #FFFFFF",
"%	c #B6BDC0",
"&	c #CBE1EA",
"                        ........  ........  ..................  ",
"                        ........  ........  ..................  ",
"  ++++++++++++++++++++++++++++++++++++++++++++++++++++++++++++  ",
"  ++++++++++++++++++++++++++++++++++++++++++++++++++++++++++++  ",
"  ++    ++++  ++++++++++++++++++++++++++++++++++++  ++++    ++..",
"  ++    ++++  ++++++++++++++++++++++++++++++++++++  ++++    ++..",
"  ++    ++++    ++++++++++++++++++++++++++++++++    ++++    ++..",
"  ++    ++++    ++++++++++++++++++++++++++++++++    ++++    ++..",
"  ++++++++++++++@@@@@@@@@@@@@@@@@@@@@@@@@@@@@@@@++++++++++++++  ",
"  ++++++++++++++@@@@@@@@@@@@@@@@@@@@@@@@@@@@@@@@++++++++++++++  ",
"..++++++++++++@@##############@@@@##############@@++++++++++++  ",
"..++++++++++++@@##############@@@@##############@@++++++++++++  ",
"..++    ++++++@@##############@@@@##############@@++++++    ++  ",
"..++    ++++++@@##############@@@@##############@@++++++    ++  ",
"  ++++  ++++@@################@@@@################@@++++  ++++  ",
"  ++++  ++++@@################@@@@################@@++++  ++++  ",
"  ++++++++++@@################@@@@################@@++++++++++  ",
"  ++++++++++@@################@@@@################@@++++++++++  ",
"  ++++++++++@@################@@@@################@@++++++++++..",
"  ++++++++++@@################@@@@################@@++++++++++..",
"..++++++++++@@$$$$############@@@@################@@++++++++++..",
"..++++++++++@@$$$$############@@@@################@@++++++++++..",
"  ++++++++++@@$$$$$$$$########@@@@################@@++++++++++..",
"  ++++++++++@@$$$$$$$$########@@@@################@@++++++++++..",
"  ++++++++++@@$$$$$$$$$$$$####@@@@################@@++++++++++..",
"  ++++++++++@@$$$$$$$$$$$$####@@@@################@@++++++++++..",
"  ++++++++++@@%%%%$$$$$$$$$$$$@@@@################@@++++++++++..",
"  ++++++++++@@%%%%$$$$$$$$$$$$@@@@################@@++++++++++..",
"  ++++++++++@@####%%%%$$$$$$$$@@@@$$$$############@@++++++++++..",
"  ++++++++++@@####%%%%$$$$$$$$@@@@$$$$############@@++++++++++..",
"  ++++++++++@@########%%%%$$$$@@@@$$$$$$$$########@@++++++++++..",
"  ++++++++++@@########%%%%$$$$@@@@$$$$$$$$########@@++++++++++..",
"..++++++++++@@############%%%%@@@@$$$$$$$$$$$$####@@++++++++++..",
"..++++++++++@@############%%%%@@@@$$$$$$$$$$$$####@@++++++++++..",
"..++++++++++@@################@@@@%%%%$$$$$$$$$$$$@@++++++++++..",
"..++++++++++@@################@@@@%%%%$$$$$$$$$$$$@@++++++++++..",
"  ++++++++++@@################@@@@####%%%%$$$$$$$$@@++++&&&&++  ",
"  ++++++++++@@################@@@@####%%%%$$$$$$$$@@++++&&&&++  ",
"  ++++++++++@@################@@@@########%%%%$$$$@@++++++++++  ",
"  ++++++++++@@################@@@@########%%%%$$$$@@++++++++++  ",
"  ++++++++++@@$$$$############@@@@############%%%%@@++++++++++  ",
"  ++++++++++@@$$$$############@@@@############%%%%@@++++++++++  ",
"..++++++++++@@$$$$$$$$########@@@@################@@++++++++++  ",
"..++++++++++@@$$$$$$$$########@@@@################@@++++++++++  ",
"  ++++++++++@@%%%%$$$$$$$$####@@@@################@@++++++++++  ",
"  ++++++++++@@%%%%$$$$$$$$####@@@@################@@++++++++++  ",
"..++++++++++@@####%%%%$$$$$$$$@@@@################@@++++++++++..",
"..++++++++++@@####%%%%$$$$$$$$@@@@################@@++++++++++..",
"  ++++  ++++@@########%%%%$$$$@@@@$$$$############@@++++  ++++..",
"  ++++  ++++@@########%%%%$$$$@@@@$$$$############@@++++  ++++..",
"..++    ++++@@############%%%%@@@@$$$$$$$$########@@++++    ++..",
"..++    ++++@@############%%%%@@@@$$$$$$$$########@@++++    ++..",
"  ++++++++++@@################@@@@%%%%$$$$$$$$####@@++++++++++..",
"  ++++++++++@@################@@@@%%%%$$$$$$$$####@@++++++++++..",
"..++++++++++@@################@@@@####%%%%$$$$$$$$@@++++++++++..",
"..++++++++++@@################@@@@####%%%%$$$$$$$$@@++++++++++..",
"  ++    ++++@@################@@@@########%%%%$$$$@@++++    ++  ",
"  ++    ++++@@################@@@@########%%%%$$$$@@++++    ++  ",
"  ++    ++++@@################@@@@############%%%%@@++++    ++  ",
"  ++    ++++@@################@@@@############%%%%@@++++    ++  ",
"  ++++++++++@@################@@@@################@@++++++++++  ",
"  ++++++++++@@################@@@@################@@++++++++++  ",
"            @@@@@@@@@@@@@@@@@@@@@@@@@@@@@@@@@@@@@@@@            ",
"            @@@@@@@@@@@@@@@@@@@@@@@@@@@@@@@@@@@@@@@@            "};
