/* XPM */
static char *daee4319d18d48ebc992fb3c7a6ca52ahBDARymp3tftKTEO[] = {
/* columns rows colors chars-per-pixel */
"94 68 4 1 ",
"  c None",
". c #782C73",
"X c #BC334A",
"o c #EADEE9",
/* pixels */
"                                                                                              ",
"          XXX  XXX  X  XX XXXX   X    X XXXX X   XX      XXX  XXXX    XXXXX X  XX XXXX        ",
"           XX X  XX X  XX X  XX  XX   X X    X   XX     X  XX X         X   X  XX X           ",
"           XX X  XX X  XX X  XX  XXX  X X    X   XX     X  XX X         X   XXXXX X           ",
"           XX X  XX X  XX XXXX   X XX X XXX   X XX      X  XX XXX       X   X  XX XXX         ",
"        X  XX X  XX X  XX X XX   X  XXX X      XX       X  XX X         X   X  XX X           ",
"        XXXXX X  XX XXXXX X XXX  X   XX XXXX   XX       X  XX X         X   X  XX XXXX        ",
"         XXX   XXX   XXX  X  XXX X    X XXXX   XX        XXX  X         X   X  XX XXXX        ",
"                                                                                              ",
"  ......       .......               ...        .....    .......          .....   ........... ",
" . XXXXXX     . XXXXXXX             . XXX      . XXXXX  . XXXXXXX        . XXXXX . XXXXXXXXXXX",
"  . XXXXXXX    . XXXXXXXX          . XXXXX      . XXX    . XXXXXXXX       . XXX   . XXXXXXXXXX",
"  . XX   XXX   . XX    XXX         . XX XX      . XX     . XX    XXX      . XX    . XXXXXXXXXX",
"  . XX..  XX   . XX...  XX         . XX XX      . XX     . XX...  XX      . XX    . XX       X",
"  . XX  .  XX  . XX   .  XX       . XXX XXX     . XX     . XX   .  XX     . XX    . XX        ",
"  . XX   . XX  . XX    . XX       . XX . XX     . XX     . XX    . XX     . XX    . XX        ",
"  . XX   . XX  . XX    . XX       . XX . XX     . XX     . XX    . XX     . XX    . XX        ",
"  . XX   . XX  . XX    . XX       . XX . XX     . XX     . XX    . XX     . XX    . XX       .",
"  . XX   . XX  . XX    . XX       . XX . XX     . XX     . XX    . XX     . XX    . XX....... ",
"  . XX  .  XX  . XX   .  XX      . XXX . XXX    . XX     . XX   .  XX     . XX    . XX       X",
"  . XX..  XX   . XX...  XX       . XXXXXXXXX    . XX     . XX...  XX      . XX    . XXXXXXXXXX",
"  . XX  XXXX   . XX   XXXX       . XXXXXXXXX    . XX     . XX   XXXX      . XX    . XXXXXXXXXX",
"  . XXXXXXX    . XXXXXXXX        . XX   . XX    . XX     . XXXXXXXX       . XX    . XX       X",
"  . XXXXX      . XXXXXXXX        . XX   . XX    . XX     . XXXXXXXX       . XX    . XX        ",
"  . XX         . XX . XXXX       . XX   . XX    . XX     . XX . XXXX      . XX    . XX        ",
"  . XX         . XX  . XXX       . XX   . XX    . XX     . XX  . XXX      . XX    . XX        ",
"  . XX         . XX  . XXXX      . XX   . XX    . XX     . XX  . XXXX     . XX    . XX       .",
"  . XX         . XX   . XXX      . XX   . XX    . XX     . XX   . XXX     . XX    . XX....... ",
"  . XX         . XX   . XXXX     . XX   . XX    . XX     . XX   . XXXX    . XX    . XX       X",
"  . XX         . XX    . XXX     . XX   . XX    . XX     . XX    . XXX    . XX    . XXXXXXXXXX",
" . XXXX       . XXXX  . XXXXX   . XXX   . XXX   . XXX   . XXXX  . XXXXX   . XXX   . XXXXXXXXXX",
". XXXXXX     . XXXXXX XXXXXXXX . XXXXX . XXXXX . XXXXX . XXXXXX XXXXXXXX . XXXXX . XXXXXXXXXXX",
"                                                                                              ",
"                    ....    ....     .....   .....      ....      ..........                  ",
"                   . XXXX  . XXXX   . XXXXX . XXXXX    . XXXX    . XXXXXXXXXX                 ",
"                    . XX    . XX     . XXX   . XXX      . XX    . XXXXXXXXXXX                 ",
"                    . XX    . XX     . XX    . XXX      . XX   . XXXXXXXXXXXX                 ",
"                    . XX    . XX     . XX    . XXX      . XX  . XXXXX       X                 ",
"                    . XX    . XX     . XX    . XXXX     . XX  . XXX                           ",
"                    . XX    . XX     . XX    . XXXX     . XX . XXX                            ",
"                    . XX    . XX     . XX    . XXXXX    . XX . XXX                            ",
"                    . XX    . XX     . XX    . XXXXX    . XX . XX                             ",
"                    . XX   .  XX     . XX    . XX XXX   . XX . XX                             ",
"                    . XX...  XX      . XX    . XX XXX   . XX . XX                             ",
"                    . XX   XXXX      . XX    . XX. XXX  . XX . XX    X                        ",
"                    . XXXXXXXX       . XX    . XX. XXX  . XX . XX    XXXXXXXX                 ",
"                    . XXXXXXXX       . XX    . XX . XXX . XX . XX    XXXXXXXX                 ",
"                    . XX . XXXX      . XX    . XX . XXX . XX . XXX   X     XX                 ",
"                    . XX . XXXX      . XX    . XX  . XXX. XX  . XX    .... XX                 ",
"                    . XX  . XXX      . XX    . XX  . XXX. XX  . XX   .   . XX                 ",
"                    . XX  . XXXX     . XX    . XX   . XXX XX  . XXX      . XX                 ",
"                    . XX   . XXX     . XX    . XX   . XXXXXX   . XX      . XX                 ",
"                    . XX   . XXXX    . XX    . XX    . XXXXX   . XXX    . XXX                 ",
"                    . XX    . XXX    . XX    . XX    . XXXXX    . XXXXXXXXXX                  ",
"                   . XXXX  . XXXXX   . XXX   . XXX    . XXXX     . XXXXXXXX                   ",
"                  . XXXXXX XXXXXXXX . XXXXX . XXXXX   . XXXX      . XXXXX                     ",
"                                                                                              ",
"                                                                                              ",
"                                                                                              ",
"                       oooo  oo   ooo  oo  oo      oo oooo   oo   oo ooo                      ",
"                        o  o o o  o   o   o       o    o  o o  o o   o                        ",
"                        o  o o o  o   o   o       o    o  o o  o o   o                        ",
"                        ooo  oo   oo   o   o       o   ooo  oooo o   oo                       ",
"                        o    o o  o     o   o       o  o    o  o o   o                        ",
"                        o    o o  o     o   o       o  o    o  o o   o                        ",
"                        o    o o  ooo oo  oo      oo   o    o  o  oo ooo                      ",
"                                                                                              ",
"                                                                                              "
};
